<?xml version="1.0" encoding="UTF-8" standalone="no"?>
<!DOCTYPE svg PUBLIC "-//W3C//DTD SVG 1.1//EN"
 "http://www.w3.org/Graphics/SVG/1.1/DTD/svg11.dtd">
<!-- Generated by graphviz version 2.43.0 (0)
 -->
<!-- Title: gpiod Pages: 1 -->
<svg width="376pt" height="481pt"
 viewBox="0.00 0.00 376.00 481.00" xmlns="http://www.w3.org/2000/svg" xmlns:xlink="http://www.w3.org/1999/xlink">
<g id="graph0" class="graph" transform="scale(1 1) rotate(0) translate(4 477)">
<title>gpiod</title>
<polygon fill="white" stroke="transparent" points="-4,4 -4,-477 372,-477 372,4 -4,4"/>
<g id="clust1" class="cluster">
<title>cluster_usuario</title>
<polygon fill="none" stroke="black" points="125,-318 125,-465 244,-465 244,-318 125,-318"/>
<text text-anchor="middle" x="184.5" y="-449.8" font-family="Times,serif" font-size="14.00">Espacio de usuario</text>
</g>
<g id="clust2" class="cluster">
<title>cluster_kernel</title>
<polygon fill="none" stroke="black" points="92,-91 92,-310 276,-310 276,-91 92,-91"/>
<text text-anchor="middle" x="118.5" y="-294.8" font-family="Times,serif" font-size="14.00">Kernel</text>
</g>
<g id="clust3" class="cluster">
<title>cluster_hardware</title>
<polygon fill="none" stroke="black" points="8,-8 8,-83 360,-83 360,-8 8,-8"/>
<text text-anchor="middle" x="43" y="-67.8" font-family="Times,serif" font-size="14.00">Hardware</text>
</g>
<!-- aplicacion -->
<g id="node1" class="node">
<title>aplicacion</title>
<ellipse fill="none" stroke="black" cx="184" cy="-416" rx="49.29" ry="18"/>
<text text-anchor="middle" x="184" y="-412.3" font-family="Times,serif" font-size="14.00">Aplicación</text>
</g>
<!-- libgpiod -->
<g id="node2" class="node">
<title>libgpiod</title>
<ellipse fill="none" stroke="black" cx="184" cy="-344" rx="40.09" ry="18"/>
<text text-anchor="middle" x="184" y="-340.3" font-family="Times,serif" font-size="14.00">libgpiod</text>
</g>
<!-- aplicacion&#45;&gt;libgpiod -->
<g id="edge1" class="edge">
<title>aplicacion&#45;&gt;libgpiod</title>
<path fill="none" stroke="black" d="M184,-397.7C184,-389.98 184,-380.71 184,-372.11"/>
<polygon fill="black" stroke="black" points="187.5,-372.1 184,-362.1 180.5,-372.1 187.5,-372.1"/>
</g>
<!-- llamadasSistema -->
<g id="node3" class="node">
<title>llamadasSistema</title>
<ellipse fill="none" stroke="black" cx="184" cy="-261" rx="81.49" ry="18"/>
<text text-anchor="middle" x="184" y="-257.3" font-family="Times,serif" font-size="14.00">Llamadas a sistema</text>
</g>
<!-- libgpiod&#45;&gt;llamadasSistema -->
<g id="edge4" class="edge">
<title>libgpiod&#45;&gt;llamadasSistema</title>
<path fill="none" stroke="black" d="M184,-325.82C184,-315.19 184,-301.31 184,-289.2"/>
<polygon fill="black" stroke="black" points="187.5,-289.15 184,-279.15 180.5,-289.15 187.5,-289.15"/>
</g>
<!-- sistemaArchivos -->
<g id="node4" class="node">
<title>sistemaArchivos</title>
<ellipse fill="none" stroke="black" cx="184" cy="-189" rx="83.69" ry="18"/>
<text text-anchor="middle" x="184" y="-185.3" font-family="Times,serif" font-size="14.00">Sistema de Archivos</text>
</g>
<!-- llamadasSistema&#45;&gt;sistemaArchivos -->
<g id="edge2" class="edge">
<title>llamadasSistema&#45;&gt;sistemaArchivos</title>
<path fill="none" stroke="black" d="M184,-242.7C184,-234.98 184,-225.71 184,-217.11"/>
<polygon fill="black" stroke="black" points="187.5,-217.1 184,-207.1 180.5,-217.1 187.5,-217.1"/>
</g>
<!-- gpiod -->
<g id="node5" class="node">
<title>gpiod</title>
<ellipse fill="none" stroke="black" cx="184" cy="-117" rx="30.59" ry="18"/>
<text text-anchor="middle" x="184" y="-113.3" font-family="Times,serif" font-size="14.00">gpiod</text>
</g>
<!-- sistemaArchivos&#45;&gt;gpiod -->
<g id="edge3" class="edge">
<title>sistemaArchivos&#45;&gt;gpiod</title>
<path fill="none" stroke="black" d="M184,-170.7C184,-162.98 184,-153.71 184,-145.11"/>
<polygon fill="black" stroke="black" points="187.5,-145.1 184,-135.1 180.5,-145.1 187.5,-145.1"/>
</g>
<!-- GPIO -->
<g id="node6" class="node">
<title>GPIO</title>
<ellipse fill="none" stroke="black" cx="184" cy="-34" rx="168.17" ry="18"/>
<text text-anchor="middle" x="184" y="-30.3" font-family="Times,serif" font-size="14.00">Entrada/Salida de Propósito General (GPIO)</text>
</g>
<!-- gpiod&#45;&gt;GPIO -->
<g id="edge5" class="edge">
<title>gpiod&#45;&gt;GPIO</title>
<path fill="none" stroke="black" d="M184,-98.82C184,-88.19 184,-74.31 184,-62.2"/>
<polygon fill="black" stroke="black" points="187.5,-62.15 184,-52.15 180.5,-62.15 187.5,-62.15"/>
</g>
</g>
</svg>
