<?xml version="1.0" encoding="UTF-8" standalone="no"?>
<!DOCTYPE svg PUBLIC "-//W3C//DTD SVG 1.1//EN"
 "http://www.w3.org/Graphics/SVG/1.1/DTD/svg11.dtd">
<!-- Generated by graphviz version 2.43.0 (0)
 -->
<!-- Title: gpiod Pages: 1 -->
<svg width="208pt" height="409pt"
 viewBox="0.00 0.00 208.00 409.00" xmlns="http://www.w3.org/2000/svg" xmlns:xlink="http://www.w3.org/1999/xlink">
<g id="graph0" class="graph" transform="scale(1 1) rotate(0) translate(4 405)">
<title>gpiod</title>
<polygon fill="white" stroke="transparent" points="-4,4 -4,-405 204,-405 204,4 -4,4"/>
<g id="clust1" class="cluster">
<title>cluster_usuario</title>
<polygon fill="none" stroke="black" points="41,-318 41,-393 160,-393 160,-318 41,-318"/>
<text text-anchor="middle" x="100.5" y="-377.8" font-family="Times,serif" font-size="14.00">Espacio de usuario</text>
</g>
<g id="clust2" class="cluster">
<title>cluster_kernel</title>
<polygon fill="none" stroke="black" points="8,-91 8,-310 192,-310 192,-91 8,-91"/>
<text text-anchor="middle" x="100" y="-294.8" font-family="Times,serif" font-size="14.00">Kernel</text>
</g>
<g id="clust3" class="cluster">
<title>cluster_hardware</title>
<polygon fill="none" stroke="black" points="61,-8 61,-83 139,-83 139,-8 61,-8"/>
<text text-anchor="middle" x="100" y="-67.8" font-family="Times,serif" font-size="14.00">Hardware</text>
</g>
<!-- aplicacion -->
<g id="node1" class="node">
<title>aplicacion</title>
<ellipse fill="none" stroke="black" cx="100" cy="-344" rx="49.29" ry="18"/>
<text text-anchor="middle" x="100" y="-340.3" font-family="Times,serif" font-size="14.00">Aplicación</text>
</g>
<!-- llamadasSistema -->
<g id="node2" class="node">
<title>llamadasSistema</title>
<ellipse fill="none" stroke="black" cx="100" cy="-261" rx="81.49" ry="18"/>
<text text-anchor="middle" x="100" y="-257.3" font-family="Times,serif" font-size="14.00">Llamadas a sistema</text>
</g>
<!-- aplicacion&#45;&gt;llamadasSistema -->
<g id="edge3" class="edge">
<title>aplicacion&#45;&gt;llamadasSistema</title>
<path fill="none" stroke="black" d="M100,-325.82C100,-315.19 100,-301.31 100,-289.2"/>
<polygon fill="black" stroke="black" points="103.5,-289.15 100,-279.15 96.5,-289.15 103.5,-289.15"/>
</g>
<!-- sistemaArchivos -->
<g id="node3" class="node">
<title>sistemaArchivos</title>
<ellipse fill="none" stroke="black" cx="100" cy="-189" rx="83.69" ry="18"/>
<text text-anchor="middle" x="100" y="-185.3" font-family="Times,serif" font-size="14.00">Sistema de Archivos</text>
</g>
<!-- llamadasSistema&#45;&gt;sistemaArchivos -->
<g id="edge1" class="edge">
<title>llamadasSistema&#45;&gt;sistemaArchivos</title>
<path fill="none" stroke="black" d="M100,-242.7C100,-234.98 100,-225.71 100,-217.11"/>
<polygon fill="black" stroke="black" points="103.5,-217.1 100,-207.1 96.5,-217.1 103.5,-217.1"/>
</g>
<!-- gpiod -->
<g id="node4" class="node">
<title>gpiod</title>
<ellipse fill="none" stroke="black" cx="100" cy="-117" rx="30.59" ry="18"/>
<text text-anchor="middle" x="100" y="-113.3" font-family="Times,serif" font-size="14.00">gpiod</text>
</g>
<!-- sistemaArchivos&#45;&gt;gpiod -->
<g id="edge2" class="edge">
<title>sistemaArchivos&#45;&gt;gpiod</title>
<path fill="none" stroke="black" d="M100,-170.7C100,-162.98 100,-153.71 100,-145.11"/>
<polygon fill="black" stroke="black" points="103.5,-145.1 100,-135.1 96.5,-145.1 103.5,-145.1"/>
</g>
<!-- GPIO -->
<g id="node5" class="node">
<title>GPIO</title>
<ellipse fill="none" stroke="black" cx="100" cy="-34" rx="31.4" ry="18"/>
<text text-anchor="middle" x="100" y="-30.3" font-family="Times,serif" font-size="14.00">GPIO</text>
</g>
<!-- gpiod&#45;&gt;GPIO -->
<g id="edge4" class="edge">
<title>gpiod&#45;&gt;GPIO</title>
<path fill="none" stroke="black" d="M100,-98.82C100,-88.19 100,-74.31 100,-62.2"/>
<polygon fill="black" stroke="black" points="103.5,-62.15 100,-52.15 96.5,-62.15 103.5,-62.15"/>
</g>
</g>
</svg>
